<mxfile host="app.diagrams.net" modified="2024-03-03T05:36:43.811Z" agent="Mozilla/5.0 (Windows NT 10.0; Win64; x64) AppleWebKit/537.36 (KHTML, like Gecko) Chrome/122.0.0.0 Safari/537.36" etag="eFY7fC4oH1lSjw2X5TCQ" version="24.0.1" type="github">
  <diagram name="第 1 页" id="MFjrIHhdrdJJFU41KrsP">
    <mxGraphModel dx="1434" dy="772" grid="1" gridSize="10" guides="1" tooltips="1" connect="1" arrows="1" fold="1" page="1" pageScale="1" pageWidth="827" pageHeight="1169" math="0" shadow="0">
      <root>
        <mxCell id="0" />
        <mxCell id="1" parent="0" />
        <mxCell id="gKCxWWKYnQTls-MKkQHv-1" value="AND" style="rounded=0;whiteSpace=wrap;html=1;fontFamily=Times New Roman;fillColor=#fff2cc;strokeColor=#000000;fontSize=18;" vertex="1" parent="1">
          <mxGeometry x="307" y="80" width="101" height="60" as="geometry" />
        </mxCell>
        <mxCell id="gKCxWWKYnQTls-MKkQHv-2" value="AND" style="rounded=0;whiteSpace=wrap;html=1;fontFamily=Times New Roman;fillColor=#fff2cc;strokeColor=#000000;fontSize=18;" vertex="1" parent="1">
          <mxGeometry x="416.5" y="204" width="99.5" height="60" as="geometry" />
        </mxCell>
        <mxCell id="gKCxWWKYnQTls-MKkQHv-3" value="OR" style="rounded=0;whiteSpace=wrap;html=1;fontFamily=Times New Roman;fillColor=#dae8fc;strokeColor=#000000;fontSize=18;" vertex="1" parent="1">
          <mxGeometry x="521" y="328" width="100" height="60" as="geometry" />
        </mxCell>
        <mxCell id="gKCxWWKYnQTls-MKkQHv-4" value="" style="endArrow=none;html=1;rounded=0;entryX=0.75;entryY=1;entryDx=0;entryDy=0;exitX=0.5;exitY=0;exitDx=0;exitDy=0;fontFamily=Times New Roman;fontSize=18;" edge="1" parent="1" source="gKCxWWKYnQTls-MKkQHv-2" target="gKCxWWKYnQTls-MKkQHv-1">
          <mxGeometry width="50" height="50" relative="1" as="geometry">
            <mxPoint x="458" y="420" as="sourcePoint" />
            <mxPoint x="508" y="370" as="targetPoint" />
          </mxGeometry>
        </mxCell>
        <mxCell id="gKCxWWKYnQTls-MKkQHv-5" value="" style="endArrow=none;html=1;rounded=0;entryX=0.75;entryY=1;entryDx=0;entryDy=0;exitX=0.5;exitY=0;exitDx=0;exitDy=0;fontFamily=Times New Roman;fontSize=18;strokeColor=#000000;" edge="1" parent="1" source="gKCxWWKYnQTls-MKkQHv-3" target="gKCxWWKYnQTls-MKkQHv-2">
          <mxGeometry width="50" height="50" relative="1" as="geometry">
            <mxPoint x="428" y="430" as="sourcePoint" />
            <mxPoint x="478" y="380" as="targetPoint" />
          </mxGeometry>
        </mxCell>
        <mxCell id="gKCxWWKYnQTls-MKkQHv-6" value="A" style="ellipse;whiteSpace=wrap;html=1;aspect=fixed;fontFamily=Times New Roman;fillColor=#d5e8d4;strokeColor=#000000;fontSize=18;" vertex="1" parent="1">
          <mxGeometry x="250" y="200" width="70" height="70" as="geometry" />
        </mxCell>
        <mxCell id="gKCxWWKYnQTls-MKkQHv-7" value="B" style="ellipse;whiteSpace=wrap;html=1;aspect=fixed;fontFamily=Times New Roman;fillColor=#d5e8d4;strokeColor=#000000;fontSize=18;" vertex="1" parent="1">
          <mxGeometry x="356" y="324" width="70" height="70" as="geometry" />
        </mxCell>
        <mxCell id="gKCxWWKYnQTls-MKkQHv-8" value="C" style="ellipse;whiteSpace=wrap;html=1;aspect=fixed;fontFamily=Times New Roman;fillColor=#d5e8d4;strokeColor=#000000;fontSize=18;" vertex="1" parent="1">
          <mxGeometry x="463" y="450" width="70" height="70" as="geometry" />
        </mxCell>
        <mxCell id="gKCxWWKYnQTls-MKkQHv-9" value="D" style="ellipse;whiteSpace=wrap;html=1;aspect=fixed;fillColor=#d5e8d4;strokeColor=#000000;fontSize=18;fontFamily=Times New Roman;" vertex="1" parent="1">
          <mxGeometry x="635" y="452" width="70" height="70" as="geometry" />
        </mxCell>
        <mxCell id="gKCxWWKYnQTls-MKkQHv-10" value="" style="endArrow=none;html=1;rounded=0;entryX=0.25;entryY=1;entryDx=0;entryDy=0;exitX=0.5;exitY=0;exitDx=0;exitDy=0;fontFamily=Times New Roman;fontSize=18;" edge="1" parent="1" source="gKCxWWKYnQTls-MKkQHv-6" target="gKCxWWKYnQTls-MKkQHv-1">
          <mxGeometry width="50" height="50" relative="1" as="geometry">
            <mxPoint x="255" y="185" as="sourcePoint" />
            <mxPoint x="305" y="135" as="targetPoint" />
          </mxGeometry>
        </mxCell>
        <mxCell id="gKCxWWKYnQTls-MKkQHv-11" value="" style="endArrow=none;html=1;rounded=0;entryX=0.25;entryY=1;entryDx=0;entryDy=0;exitX=0.5;exitY=0;exitDx=0;exitDy=0;fontFamily=Times New Roman;fontSize=18;strokeColor=#000000;" edge="1" parent="1" source="gKCxWWKYnQTls-MKkQHv-7" target="gKCxWWKYnQTls-MKkQHv-2">
          <mxGeometry width="50" height="50" relative="1" as="geometry">
            <mxPoint x="415" y="345" as="sourcePoint" />
            <mxPoint x="465" y="295" as="targetPoint" />
          </mxGeometry>
        </mxCell>
        <mxCell id="gKCxWWKYnQTls-MKkQHv-12" value="" style="endArrow=none;html=1;rounded=0;entryX=0.25;entryY=1;entryDx=0;entryDy=0;exitX=0.5;exitY=0;exitDx=0;exitDy=0;fontFamily=Times New Roman;fontSize=18;strokeColor=#000000;" edge="1" parent="1" source="gKCxWWKYnQTls-MKkQHv-8" target="gKCxWWKYnQTls-MKkQHv-3">
          <mxGeometry width="50" height="50" relative="1" as="geometry">
            <mxPoint x="535" y="455" as="sourcePoint" />
            <mxPoint x="585" y="405" as="targetPoint" />
          </mxGeometry>
        </mxCell>
        <mxCell id="gKCxWWKYnQTls-MKkQHv-13" value="" style="endArrow=none;html=1;rounded=0;entryX=0.75;entryY=1;entryDx=0;entryDy=0;exitX=0.5;exitY=0;exitDx=0;exitDy=0;fontFamily=Times New Roman;fontSize=18;strokeColor=#000000;" edge="1" parent="1" source="gKCxWWKYnQTls-MKkQHv-9" target="gKCxWWKYnQTls-MKkQHv-3">
          <mxGeometry width="50" height="50" relative="1" as="geometry">
            <mxPoint x="655" y="455" as="sourcePoint" />
            <mxPoint x="705" y="405" as="targetPoint" />
          </mxGeometry>
        </mxCell>
      </root>
    </mxGraphModel>
  </diagram>
</mxfile>
